<svg xmlns="http://www.w3.org/2000/svg" viewBox="0 0 64 64" role="img" aria-labelledby="title">
  <title id="title">石化及塑橡膠</title>
  <defs>
    <linearGradient id="tower" x1="10" y1="8" x2="26" y2="58" gradientUnits="userSpaceOnUse">
      <stop stop-color="#818cf8"/>
      <stop offset="1" stop-color="#4f46e5"/>
    </linearGradient>
    <linearGradient id="liquid" x1="30" y1="38" x2="52" y2="58" gradientUnits="userSpaceOnUse">
      <stop stop-color="#2dd4bf"/>
      <stop offset="1" stop-color="#0d9488"/>
    </linearGradient>
  </defs>
  <path fill="#cbd5e1" d="M14 4c3 0 4.5 2 4.5 4h-9C9.5 6 11 4 14 4Z"/>
  <rect x="11" y="9" width="10" height="47" rx="2" fill="url(#tower)"/>
  <path fill="none" stroke="#e0e7ff" stroke-width="2" stroke-linecap="round" d="M13.5 18h5M13.5 27h5M13.5 36h5M13.5 45h5"/>
  <path fill="none" stroke="#64748b" stroke-width="2.5" stroke-linecap="round" stroke-linejoin="round" d="M21 22h6v8"/>
  <path fill="#e0f2fe" stroke="#64748b" stroke-width="2" stroke-linejoin="round" d="M31 30v8L24.5 51.5A4 4 0 0 0 28.1 57h17.8a4 4 0 0 0 3.6-5.5L43 38v-8Z"/>
  <path fill="none" stroke="#64748b" stroke-width="2.5" stroke-linecap="round" d="M29 30h16"/>
  <path fill="url(#liquid)" d="M27.5 45h19l3 6.5A4 4 0 0 1 45.9 57H28.1a4 4 0 0 1-3.6-5.5Z"/>
  <circle cx="33" cy="50" r="1.8" fill="#ccfbf1"/>
  <circle cx="40" cy="52.5" r="1.3" fill="#ccfbf1"/>
  <rect x="50" y="16" width="6" height="4" rx="1" fill="#6366f1"/>
  <path fill="#ede9fe" stroke="#8b5cf6" stroke-width="2" stroke-linejoin="round" d="M51 20h4l2.5 5v17a3 3 0 0 1-3 3h-3a3 3 0 0 1-3-3V25Z"/>
  <path fill="none" stroke="#c4b5fd" stroke-width="2" stroke-linecap="round" d="M51.5 30v8"/>
  <path fill="#1e293b" d="M3 56h58v3H3z" opacity=".25"/>
</svg>
